<svg xmlns="http://www.w3.org/2000/svg" xmlns:xlink="http://www.w3.org/1999/xlink" fill="none" version="1.1" width="160" height="180" viewBox="0 0 160 180"><g><path d="M7.5120001,160.547969703125L13.784,160.547969703125L15.192,160.547969703125Q16.664001,160.547969703125,17.672001,160.179969703125Q18.68,159.811969703125,19.288,159.219969703125Q19.896,158.627969703125,20.152,157.875969703125Q20.408001,157.123969703125,20.408001,156.32397070312498Q20.408001,155.523969703125,20.152,154.771970703125Q19.896,154.019969703125,19.256001,153.427968703125Q18.616001,152.835969903125,17.544001,152.467969903125Q16.472001,152.099969903125,14.84,152.099969903125L7.5120001,152.099969903125L7.5120001,160.547969703125ZM4.312,152.099969903125Q4.312,150.691968903125,5.2080002,149.795969003125Q6.1040001,148.899969103125,7.5120001,148.899969103125L14.84,148.899969103125Q17.176001,148.899969103125,18.840001,149.603969603125Q20.504002,150.307970003125,21.560001,151.379970503125Q22.616001,152.451969103125,23.112001,153.76396970312499Q23.608002,155.075969703125,23.608002,156.32397070312498Q23.608002,157.443969703125,23.208,158.643969703125Q22.808001,159.843971703125,21.960001,160.883970703125Q21.112001,161.923969703125,19.816,162.675969703125Q18.52,163.427970703125,16.728001,163.651969703125L23.448002,173.507970703125Q23.736,173.891971703125,23.736,174.403970703125Q23.736,175.075971703125,23.272001,175.539970703125Q22.808001,176.003970703125,22.136002,176.003970703125Q21.720001,176.003970703125,21.384001,175.811969703125Q21.048,175.619972703125,20.824001,175.299972703125L12.9520006,163.747970703125L7.5120001,163.747970703125L7.5120001,174.435970703125Q7.5120001,175.107970703125,7.0480003,175.571971703125Q6.5840001,176.035972703125,5.9120002,176.035972703125Q5.24,176.035972703125,4.7760001,175.571971703125Q4.312,175.107970703125,4.312,174.435970703125L4.312,162.467969703125Q4.2800001000000005,162.371970703125,4.2800001000000005,162.147969703125Q4.2800001000000005,161.923969703125,4.312,161.827970703125L4.312,152.099969903125ZM39.192001,166.499969703125Q39.192001,165.123969703125,38.728004,163.955970703125Q38.264,162.787971703125,37.432003,161.955970703125Q36.600002,161.123969703125,35.432003,160.659969703125Q34.264002000000005,160.195970703125,32.856003,160.195970703125Q31.480001,160.195970703125,30.328001,160.659969703125Q29.176003,161.123969703125,28.328001,161.955970703125Q27.480001,162.787971703125,27.016003,163.955970703125Q26.552002,165.123969703125,26.552002,166.499969703125Q26.552002,167.907970703125,27.016003,169.059970703125Q27.480001,170.211971703125,28.328001,171.059970703125Q29.176003,171.907970703125,30.328001,172.371970703125Q31.480001,172.835969703125,32.856003,172.835969703125Q34.264002000000005,172.835969703125,35.432003,172.371970703125Q36.600002,171.907970703125,37.432003,171.059970703125Q38.264,170.211971703125,38.728004,169.059970703125Q39.192001,167.907970703125,39.192001,166.499969703125ZM32.856003,156.995969703125Q34.840002,156.995969703125,36.584,157.731969703125Q38.328003,158.467969703125,39.624001,159.76396970312499Q40.920002,161.059970703125,41.656002,162.787971703125Q42.392002,164.515970703125,42.392002,166.499969703125Q42.392002,168.483970703125,41.656002,170.211971703125Q40.920002,171.939969703125,39.624001,173.235971703125Q38.328003,174.531970703125,36.584,175.283969703125Q34.840002,176.035972703125,32.856003,176.035972703125Q30.872002,176.035972703125,29.144001,175.283969703125Q27.416,174.531970703125,26.136002,173.235971703125Q24.856001,171.939969703125,24.104002,170.211971703125Q23.352001,168.483970703125,23.352001,166.499969703125Q23.352001,164.515970703125,24.104002,162.787971703125Q24.856001,161.059970703125,26.152,159.76396970312499Q27.448002,158.467969703125,29.176003,157.731969703125Q30.904001,156.995969703125,32.856003,156.995969703125ZM44.568001,158.563969703125Q44.568001,157.891969703125,45.032001,157.427969703125Q45.496002,156.963969703125,46.168003,156.963969703125Q46.840004,156.963969703125,47.304001,157.427969703125Q47.768002,157.891969703125,47.768002,158.563969703125L47.768002,168.771970703125Q47.768002,170.627971703125,48.888,171.731969703125Q50.008003,172.835969703125,52.248001,172.835969703125Q54.232002,172.835969703125,55.352001,171.715970703125Q56.472004,170.595969703125,56.472004,168.771970703125L56.472004,158.563969703125Q56.472004,157.891969703125,56.936005,157.427969703125Q57.400002,156.963969703125,58.072002,156.963969703125Q58.744003,156.963969703125,59.208004,157.427969703125Q59.672005,157.891969703125,59.672005,158.563969703125L59.672005,174.435970703125Q59.672005,175.107970703125,59.208004,175.571971703125Q58.744003,176.035972703125,58.072002,176.035972703125Q57.464005,176.035972703125,57.032001,175.667972703125Q56.600002,175.299972703125,56.504002,174.755969703125Q55.608002,175.363971703125,54.536003,175.699970703125Q53.464005,176.035972703125,52.248001,176.035972703125Q50.520004,176.035972703125,49.112003,175.459972703125Q47.704002,174.883970703125,46.696003,173.891971703125Q45.688004,172.899970703125,45.128002,171.587970703125Q44.568001,170.275970703125,44.568001,168.771970703125L44.568001,158.563969703125ZM64.408005,175.491969703125Q63.928005,176.035972703125,63.192005,176.035972703125Q62.520004,176.035972703125,62.056004,175.571971703125Q61.592003,175.107970703125,61.592003,174.435970703125Q61.592003,173.859969703125,61.976002,173.379970703125L67.864006,166.499969703125L61.976002,159.651969703125Q61.592003,159.171970703125,61.592003,158.595969703125Q61.592003,157.923970703125,62.056004,157.459969703125Q62.520004,156.995969703125,63.192005,156.995969703125Q63.928005,156.995969703125,64.408005,157.539970703125L70.008003,164.035970703125L75.576004,157.539970703125Q76.056007,156.995969703125,76.792007,156.995969703125Q77.464005,156.995969703125,77.928009,157.459969703125Q78.392006,157.923970703125,78.392006,158.595969703125Q78.392006,159.171970703125,78.008003,159.651969703125L72.120003,166.499969703125L78.008003,173.379970703125Q78.392006,173.859969703125,78.392006,174.435970703125Q78.392006,175.107970703125,77.928009,175.571971703125Q77.464005,176.035972703125,76.792007,176.035972703125Q76.056007,176.035972703125,75.576004,175.491969703125L70.008003,168.995971703125L64.408005,175.491969703125ZM96.184006,148.899969103125Q96.856003,148.899969103125,97.320007,149.363969803125Q97.784004,149.827970503125,97.784004,150.499969503125L97.784004,150.531969103125Q97.784004,150.979969003125,97.528008,151.395969403125L84.216003,172.227969703125L96.184006,172.227969703125Q96.856003,172.227969703125,97.320007,172.691970703125Q97.784004,173.155971703125,97.784004,173.827970703125Q97.784004,174.499971703125,97.320007,174.963969703125Q96.856003,175.427970703125,96.184006,175.427970703125L81.336006,175.427970703125Q80.664009,175.427970703125,80.184006,174.947971703125Q79.704002,174.467969703125,79.704002,173.795970703125Q79.704002,173.347970703125,79.960007,172.931970703125L93.272003,152.099969903125L81.272003,152.099969903125Q80.600006,152.099969903125,80.136009,151.635969203125Q79.672005,151.171970403125,79.672005,150.499969503125Q79.672005,149.827970503125,80.136009,149.363969803125Q80.600006,148.899969103125,81.272003,148.899969103125L96.184006,148.899969103125ZM116.34401,174.435970703125Q116.34401,175.107970703125,115.88001,175.571971703125Q115.41602,176.035972703125,114.74401,176.035972703125Q114.07201,176.035972703125,113.60801,175.571971703125Q113.14401,175.107970703125,113.14401,174.435970703125L113.14401,164.547969703125Q113.14401,162.627969703125,111.88001,161.395969703125Q110.61601,160.163970703125,108.34401,160.163970703125Q107.38401,160.163970703125,106.50401,160.499969703125Q105.62401,160.835969703125,104.96801,161.427970703125Q104.31201,162.019969703125,103.92801,162.819968703125Q103.54401,163.619970703125,103.54401,164.547969703125L103.54401,174.435970703125Q103.54401,175.107970703125,103.08001,175.571971703125Q102.616013,176.035972703125,101.944008,176.035972703125Q101.272011,176.035972703125,100.808014,175.571971703125Q100.344009,175.107970703125,100.344009,174.435970703125L100.344009,149.923969303125Q100.344009,149.251970303125,100.808014,148.787969603125Q101.272011,148.323968903125,101.944008,148.323968903125Q102.616013,148.323968903125,103.08001,148.787969603125Q103.54401,149.251970303125,103.54401,149.923969303125L103.54401,158.595969703125Q104.56801,157.827969703125,105.81601,157.395970703125Q107.06401,156.963969703125,108.34401,156.963969703125Q110.07201,156.963969703125,111.52802,157.571969703125Q112.98401,158.179969703125,114.05602,159.219969703125Q115.12801,160.259969703125,115.73601,161.635970703125Q116.34401,163.011970703125,116.34401,164.547969703125L116.34401,174.435970703125ZM133.97601,170.179969703125Q134.64801,170.179969703125,135.11201,170.643970703125Q135.576,171.107970703125,135.576,171.779969703125Q135.576,172.355970703125,135.16,172.835969703125Q133.84801,174.339971703125,131.94402,175.187970703125Q130.04001,176.035972703125,128.02401,176.035972703125Q125.84801,176.035972703125,124.10401,175.347968703125Q122.36001,174.659971703125,121.11201,173.411969703125Q119.86401,172.163970703125,119.19201,170.403970703125Q118.52001,168.643970703125,118.52001,166.499969703125Q118.52001,164.547969703125,119.22401,162.803970703125Q119.92801,161.059970703125,121.144,159.779969703125Q122.36001,158.499970703125,123.99201,157.747969703125Q125.62401,156.995969703125,127.48001,156.995969703125Q129.33601,156.995969703125,130.936,157.699970703125Q132.53601,158.403969703125,133.73601,159.635970703125Q134.936,160.867969703125,135.65601,162.531970703125Q136.37601,164.195970703125,136.47202,166.083970703125Q136.50401,166.723970703125,136.04001,167.235969703125Q135.576,167.747970703125,134.87201,167.747970703125L121.78401,167.747970703125Q122.42401,172.835969703125,128.02401,172.835969703125Q129.43201,172.835969703125,130.64801,172.291971703125Q131.86401,171.747970703125,132.79201,170.723970703125Q133.272,170.179969703125,133.97601,170.179969703125ZM133.11201,164.867969703125Q132.664,162.723970703125,131.17601,161.459970703125Q129.68801000000002,160.195970703125,127.48001,160.195970703125Q125.33601,160.195970703125,123.83201,161.459970703125Q122.32801,162.723970703125,121.88,164.867969703125L133.11201,164.867969703125ZM153.72002,170.179969703125Q154.39201,170.179969703125,154.85602,170.643970703125Q155.32001,171.107970703125,155.32001,171.779969703125Q155.32001,172.355970703125,154.90401,172.835969703125Q153.59201,174.339971703125,151.68802,175.187970703125Q149.78401,176.035972703125,147.76801,176.035972703125Q145.59201,176.035972703125,143.84801,175.347968703125Q142.104,174.659971703125,140.85602,173.411969703125Q139.60802,172.163970703125,138.936,170.403970703125Q138.26401,168.643970703125,138.26401,166.499969703125Q138.26401,164.547969703125,138.96802,162.803970703125Q139.67201,161.059970703125,140.88802,159.779969703125Q142.104,158.499970703125,143.73601,157.747969703125Q145.36801,156.995969703125,147.22401,156.995969703125Q149.08002,156.995969703125,150.68001,157.699970703125Q152.28001,158.403969703125,153.48001,159.635970703125Q154.68001,160.867969703125,155.40001,162.531970703125Q156.12001,164.195970703125,156.21602,166.083970703125Q156.24802,166.723970703125,155.78401,167.235969703125Q155.32001,167.747970703125,154.61601,167.747970703125L141.52802,167.747970703125Q142.16801,172.835969703125,147.76801,172.835969703125Q149.17601,172.835969703125,150.39201,172.291971703125Q151.60802,171.747970703125,152.53601,170.723970703125Q153.01601,170.179969703125,153.72002,170.179969703125ZM152.85602,164.867969703125Q152.40802,162.723970703125,150.92001,161.459970703125Q149.43201,160.195970703125,147.22401,160.195970703125Q145.08002,160.195970703125,143.57602,161.459970703125Q142.07201,162.723970703125,141.62401,164.867969703125L152.85602,164.867969703125Z" fill="#4F46E5" fill-opacity="0.5" style="mix-blend-mode:passthrough"/></g><rect x="19" y="6" width="128" height="128" rx="12" fill="#4568FF" fill-opacity="0.5" style="mix-blend-mode:passthrough"/><rect x="24" y="3" width="128" height="128" rx="12" fill="#4F46E5" fill-opacity="0.1599999964237213" style="mix-blend-mode:passthrough"/><rect x="15" y="8.5" width="128" height="128" rx="12" fill="#FFFFFF" fill-opacity="1" style="mix-blend-mode:passthrough"/><g><path d="M30.75,59.6875Q28.25,60.3125,27.6875,60.3125Q26.1875,60.3125,25.8125,58.5L25.1875,55.625Q24.9375,54.625,24.9375,53.8125Q24.9375,50.375,29.125,49.5Q39.25,47.5,44.5,47.5Q49.75,47.5,53.4375,48.3125Q57.125,49.125,59.875,51Q65.8125,55.125,65.8125,63.875Q65.8125,72.75,58.625,76.625Q56.375,77.8125,53.4375,78.6875Q58.4375,82.9375,63.9375,85.125Q66.6875,86.3125,66.6875,88.3125Q66.6875,89.4375,65.8125,90.8125L64.875,92.3125Q63.25,94.9375,60.9375,94.9375Q59.9375,94.9375,58.6875,94.375Q49.5,90.125,42.125,82.4375Q40.6875,81,40.6875,79.0625Q40.6875,78.75,40.75,78.4375L41.4375,71.0625Q41.5,69.9375,42.6875,69.9375Q42.6875,69.9375,42.8125,69.9375L44,70Q51.5,70,54.5,66.625Q55.75,65.3125,55.75,63.1875Q55.75,61.0625,54.8125,59.9375Q53.875,58.8125,52.5,58.25Q50.375,57.5,47.09375,57.5Q43.8125,57.5,41.375,57.6875Q39.4375,74.0625,39.4375,91.125L39.5,93.6875Q39.5,96.25,36.9375,96.375L28.9375,96.5L28.9375,96.1875Q28.9375,73.625,30.75,59.6875ZM75.8125,87.625Q75.8125,86.4375,77.3125,86.4375Q77.5625,86.4375,77.875,86.375Q84.3125,80.625,90.8125,74.125L89,73.1875Q88.0625,72.75,87,72.25Q84.6875,71.125,84.6875,69.4375Q84.6875,68.375,85.6875,67.0625L87.1875,65.0625Q88.875,62.8125,91.125,62.8125Q92.375,62.8125,93.75,63.5Q96.625,64.875,98.625,66Q103.9375,60.125,103.9375,59.125Q103.9375,58.75,100.625,58.75Q93.75,58.75,88,59.3125Q82.25,59.875,81.75,59.875Q77.375,59.875,76.8125,55.125L76.8125,54.9375Q76.75,54.3125,76.75,53.75Q76.75,49.5625,81.375,49.1875Q90.75,48.0625,100.9375,48.0625Q117,48.0625,117,55.375Q117,61,107.9375,71.75Q108.4375,72.125,109,72.53125Q109.5625,72.9375,110.4375,73.65625Q111.3125,74.375,111.3125,75.375Q111.3125,76.375,110.625,77.3125L107.75,81.25Q106.625,82.75,105.5,82.75Q104.375,82.75,103.46875,82.03125Q102.5625,81.3125,101.90625,80.84375Q101.25,80.375,100.5625,79.875L98.0625,82.375Q96.75,83.6875,95.375,85L96.0625,85Q103.3125,85,112.5,85.5625Q117.4375,85.9375,117.4375,90.625Q117.4375,90.625,117.4375,91.1875L117.375,91.4375Q117.125,96.4375,112.3125,96.4375Q112.3125,96.4375,107.71875,96.15625Q103.125,95.875,97.6875,95.875Q88.8125,95.875,85.1875,96.21875Q81.5625,96.5625,81.125,96.5625Q79.1875,96.5625,77.90625,95.53125Q76.625,94.5,76.3125,91.875L75.8125,87.875Q75.8125,87.875,75.8125,87.625ZM124.8125,94.625Q124.8125,94.3125,124.84375,93.9375Q124.875,93.5625,124.875,93.1875Q124.875,92.8125,124.9375,92.5Q125.3125,87.4375,130.1875,87.4375Q130.1875,87.4375,130.625,87.4375L131.875,87.5625Q136.75,87.8125,136.75,92.4375Q136.75,92.4375,136.75,93Q136.75,93.875,136.625,94.875Q136.375,99.6875,131.625,99.6875Q131.625,99.6875,130,99.6875Q124.8125,99.5,124.8125,94.625Z" fill="#4F46E5" fill-opacity="1" style="mix-blend-mode:passthrough"/></g></svg>